<?xml version="1.0" encoding="utf-8"?>
<!-- Generator: Adobe Illustrator 26.3.1, SVG Export Plug-In . SVG Version: 6.00 Build 0)  -->
<svg version="1.1" id="レイヤー_1" xmlns="http://www.w3.org/2000/svg" xmlns:xlink="http://www.w3.org/1999/xlink" x="0px"
	 y="0px" viewBox="0 0 1024 768" style="enable-background:new 0 0 1024 768;" xml:space="preserve">
<style type="text/css">
	.st0{fill:#231815;}
	.st1{fill:none;}
</style>
<path class="st0" d="M511.6,384.9c-0.8-0.1-1.6-1.6-0.5-1.8l2.3,0.5L511.6,384.9z"/>
<path class="st0" d="M540.8,388.8c-1-6.3-7.9-9.4-13.2-11.2c-3.3-1.7-4.6-5.1-5.2-8.5c-1.6,2.9-3.1,5.8-3.5,9.1
	c1.3,1.6,3,1.9,4.5,3.2c3.5,2.4,3,6.5,5.6,9.4c1.5,0.7,3-0.2,4.2-0.9c0.9,0.3,1.1,1.2,1.6,1.8c-0.8,2-2.9,1.9-4.5,2.5
	c-5.6-0.4-5.3-6.7-8-10.1c-2.3-2.7-5.5-2.3-8.5-2c2-4.3,2.5-9.4,5.3-13.4c1.2-0.4,2.2-3,3.6-1.3c0.8-0.6,0.3-1.6,0.4-2.5
	c-7.2,0.1-13.6-0.3-20.6,0l-19.4,36.5v1.4l5.8,0.2l37.1,0.3c3.2-0.1,6.3-0.4,9-2.1C539.3,398.4,541.2,393.9,540.8,388.8z
	 M487.6,400.7v-1.6c3.6-6.4,6.9-13.1,11.9-19c3-2.4,7.6-1.5,10.9-0.4c2.9-4.2,3.3-9.2,6.5-13.2c2.7,2.4-1.2,4.1-1.1,6.5
	c-1.2,4.1-2.8,8.2-4.7,12c-1.4-1.7-3.3-4-5.8-4c-2.4,0.3-4.9,0.9-6.3,3.3C495.2,389.9,493.9,397.3,487.6,400.7z M487.2,401.6H484
	c0.3-0.8,2.8-3.6,3.2-0.8V401.6z M496.1,392.7c0.9-2.9,3.5-5.6,4.2-8.1c1.8-2.5,6.3-3,8.3-0.4c2.1,1.7,0.8,4.7,0.2,6.7
	c-0.6,1.4-2.1,1.4-3.2,2c-0.9,0-1.7-0.7-2-1.5c1.2-0.6,3.5-1.2,3.8-3.1c0.8-1.4-0.6-3.2-2-3.4c-1.2,0.1-2.2,0.5-3.2,1.1
	c-3.3,4.7-5.7,9.9-8.4,15C490.2,398,495.7,395.4,496.1,392.7z M502.1,391.7c0.3,0.3,1.2,0.8,0.9,1.6l-2.2,1.1
	C500.2,393.6,501.6,392.6,502.1,391.7z M536.3,395.5c-2.7,2.4-6.6,2.2-9.9,1.1c-4.1-1.8-5.4-6.3-6.9-10c-0.9-0.9-2.2-1.4-3.3-0.9
	c-2.6,2.3-2.2,6.2-5.4,8.5c-2.4,2-5.7,3.5-8.9,2.2l-0.4-0.4c2.4-3.2,7.9-0.9,9.2-5.6c-0.1-2.5,1.1-4.4,2.4-6.3
	c2.2-1.2,4.6-1.6,6.9-0.4c4.6,3.2,3,11.4,10.2,11.6c3.5,0.2,4.9-3.7,8.1-4.3C538.8,393.1,537.7,394.4,536.3,395.5z"/>
<rect x="481" y="353" class="st1" width="62" height="62"/>
</svg>
