<?xml version="1.0" encoding="UTF-8"?><svg id="_イヤー_2" xmlns="http://www.w3.org/2000/svg" viewBox="0 0 42.88012 24.09768"><defs><style>.cls-1{fill-rule:evenodd;}</style></defs><g id="_字"><g><path class="cls-1" d="M24.75859,4.57677c4.90777,2.99187,9.67256,7.63017,13.34986,11.80913,1.40794,1.59985,3.5609,4.40585,4.58401,6.66943,.77099,1.70577-1.03786,1.05559-1.73648-.08338-4.8629-7.92808-13.56651-15.60249-21.933-19.74248-1.99789-.98861-5.62768-1.8284-5.87918-2.31651-.84319-2.83006,8.29306,1.63882,11.61479,3.66381Z"/><path class="cls-1" d="M17.956,11.35744c4.39055,2.08043,8.40815,4.83888,12.51806,7.60319,2.79454,1.87957,2.56982,3.66869,.4418,2.27812-1.6904-1.10457-3.81174-2.55598-5.43987-3.67254-3.9863-2.7338-9.20677-5.29892-12.85278-6.79061C7.1737,8.54624-.02796,7.33911,.00008,6.46222c.04301-1.43347,10.56708,1.39429,17.95592,4.89522Z"/></g></g></svg>