<?xml version="1.0" encoding="utf-8"?>
<!-- Generator: Adobe Illustrator 26.3.1, SVG Export Plug-In . SVG Version: 6.00 Build 0)  -->
<svg version="1.1" id="レイヤー_1" xmlns="http://www.w3.org/2000/svg" xmlns:xlink="http://www.w3.org/1999/xlink" x="0px"
	 y="0px" viewBox="0 0 32 32" style="enable-background:new 0 0 32 32;" xml:space="preserve">
<style type="text/css">
	.st0{fill:#231815;}
</style>
<path class="st0" d="M15.8,15.9c-0.4-0.1-0.9-0.9-0.3-1l1.2,0.3L15.8,15.9z"/>
<path class="st0" d="M31.5,18c-0.5-3.4-4.3-5.1-7.1-6c-1.8-0.9-2.5-2.8-2.8-4.6c-0.9,1.6-1.7,3.1-1.9,4.9c0.7,0.9,1.6,1,2.4,1.7
	c1.9,1.3,1.6,3.5,3,5.1c0.8,0.4,1.6-0.1,2.3-0.5c0.5,0.2,0.6,0.6,0.9,1c-0.4,1.1-1.6,1-2.4,1.3c-3-0.2-2.9-3.6-4.3-5.4
	c-1.2-1.5-3-1.2-4.6-1.1c1.1-2.3,1.3-5.1,2.9-7.2c0.6-0.2,1.2-1.6,1.9-0.7c0.4-0.3,0.2-0.9,0.2-1.3c-3.9,0.1-7.3-0.2-11.1,0
	L0.4,24.8v0.8l3.1,0.1l20,0.2c1.7-0.1,3.4-0.2,4.9-1.1C30.7,23.2,31.7,20.8,31.5,18z M2.8,24.4v-0.9c1.9-3.5,3.7-7.1,6.4-10.3
	c1.6-1.3,4.1-0.8,5.9-0.2c1.6-2.3,1.8-5,3.5-7.1C20.1,7.3,18,8.2,18,9.5c-0.6,2.2-1.5,4.4-2.5,6.5c-0.8-0.9-1.8-2.2-3.1-2.2
	C11.1,14,9.7,14.3,9,15.6C6.9,18.6,6.2,22.6,2.8,24.4z M2.6,24.9H0.9C1,24.5,2.4,23,2.6,24.5V24.9z M7.4,20.1c0.5-1.6,1.9-3,2.3-4.4
	c1-1.3,3.4-1.6,4.5-0.2c1.1,0.9,0.4,2.5,0.1,3.6c-0.3,0.8-1.1,0.8-1.7,1.1c-0.5,0-0.9-0.4-1.1-0.8c0.6-0.3,1.9-0.6,2.1-1.7
	c0.4-0.8-0.3-1.7-1.1-1.8c-0.6,0.1-1.2,0.3-1.7,0.6c-1.8,2.5-3.1,5.3-4.5,8.1C4.2,23,7.2,21.6,7.4,20.1z M10.6,19.6
	c0.2,0.2,0.6,0.4,0.5,0.9L9.9,21C9.6,20.6,10.4,20.1,10.6,19.6z M29.1,21.6c-1.5,1.3-3.6,1.2-5.3,0.6c-2.2-1-2.9-3.4-3.7-5.4
	c-0.5-0.5-1.2-0.8-1.8-0.5c-1.4,1.2-1.2,3.3-2.9,4.6c-1.3,1.1-3.1,1.9-4.8,1.2l-0.2-0.2c1.3-1.7,4.3-0.5,5-3
	c-0.1-1.3,0.6-2.4,1.3-3.4c1.2-0.6,2.5-0.9,3.7-0.2c2.5,1.7,1.6,6.2,5.5,6.3c1.9,0.1,2.6-2,4.4-2.3C30.4,20.3,29.8,21,29.1,21.6z"/>
</svg>
